HIERARCHY
ROOT hip
{
  OFFSET 0 0 0
  CHANNELS 6 Xposition Yposition Zposition Zrotation Yrotation Xrotation
  JOINT abdomen
  {
    OFFSET 0 20.6881 -0.73152
    CHANNELS 3 Zrotation Xrotation Yrotation
    JOINT chest
    {
      OFFSET 0 11.7043 -0.48768
      CHANNELS 3 Zrotation Xrotation Yrotation
      JOINT neck
      {
        OFFSET 0 22.1894 -2.19456
        CHANNELS 3 Zrotation Xrotation Yrotation
        JOINT head
        {
          OFFSET -0.24384 7.07133 1.2192
          CHANNELS 3 Zrotation Xrotation Yrotation
          JOINT leftEye
          {
            OFFSET 4.14528 8.04674 8.04672
            CHANNELS 3 Zrotation Xrotation Yrotation
            End Site
            {
              OFFSET 1 0 0
            }
          }
          JOINT rightEye
          {
            OFFSET -3.6576 8.04674 8.04672
            CHANNELS 3 Zrotation Xrotation Yrotation
            End Site
            {
              OFFSET 1 0 0
            }
          }
        }
      }
      JOINT rCollar
      {
        OFFSET -2.68224 19.2634 -4.8768
        CHANNELS 3 Zrotation Xrotation Yrotation
        JOINT rShldr
        {
          OFFSET -8.77824 -1.95073 1.46304
          CHANNELS 3 Zrotation Xrotation Yrotation
          JOINT rForeArm
          {
            OFFSET -28.1742 -1.7115 0.48768
            CHANNELS 3 Zrotation Xrotation Yrotation
            JOINT rHand
            {
              OFFSET -22.5879 0.773209 7.07136
              CHANNELS 3 Zrotation Xrotation Yrotation
              JOINT rThumb1
              {
                OFFSET -1.2192 -0.487915 3.41376
                CHANNELS 3 Zrotation Xrotation Yrotation
                JOINT rThumb2
                {
                  OFFSET -3.37035 -0.52449 3.41376
                  CHANNELS 3 Zrotation Xrotation Yrotation
                  End Site
                  {
                    OFFSET -1.78271 -1.18214 1.43049
                  }
                }
              }
              JOINT rIndex1
              {
                OFFSET -7.75947 0.938293 5.60832
                CHANNELS 3 Zrotation Xrotation Yrotation
                JOINT rIndex2
                {
                  OFFSET -2.54057 -0.884171 1.56538
                  CHANNELS 3 Zrotation Xrotation Yrotation
                  End Site
                  {
                    OFFSET -1.62519 -0.234802 1.16502
                  }
                }
              }
              JOINT rMid1
              {
                OFFSET -8.24714 1.18213 3.41376
                CHANNELS 3 Zrotation Xrotation Yrotation
                JOINT rMid2
                {
                  OFFSET -3.10165 -0.590103 1.0647
                  CHANNELS 3 Zrotation Xrotation Yrotation
                  End Site
                  {
                    OFFSET -2.48547 -0.328903 0.83742
                  }
                }
              }
              JOINT rRing1
              {
                OFFSET -8.82822 0.546677 1.51678
                CHANNELS 3 Zrotation Xrotation Yrotation
                JOINT rRing2
                {
                  OFFSET -2.60934 -0.819778 -0.0198488
                  CHANNELS 3 Zrotation Xrotation Yrotation
                  End Site
                  {
                    OFFSET -2.33842 -0.294052 0.168128
                  }
                }
              }
              JOINT rPinky1
              {
                OFFSET -8.27202 -0.0477905 -0.4584
                CHANNELS 3 Zrotation Xrotation Yrotation
                JOINT rPinky2
                {
                  OFFSET -1.82734 -0.647385 -0.700984
                  CHANNELS 3 Zrotation Xrotation Yrotation
                  End Site
                  {
                    OFFSET -1.69225 -0.51767 -0.607171
                  }
                }
              }
            }
          }
        }
      }
      JOINT lCollar
      {
        OFFSET 2.68224 19.2634 -4.8768
        CHANNELS 3 Zrotation Xrotation Yrotation
        JOINT lShldr
        {
          OFFSET 8.77824 -1.95073 1.46304
          CHANNELS 3 Zrotation Xrotation Yrotation
          JOINT lForeArm
          {
            OFFSET 28.1742 -1.7115 0.48768
            CHANNELS 3 Zrotation Xrotation Yrotation
            JOINT lHand
            {
              OFFSET 22.5879 0.773209 7.07136
              CHANNELS 3 Zrotation Xrotation Yrotation
              JOINT lThumb1
              {
                OFFSET 1.2192 -0.487915 3.41376
                CHANNELS 3 Zrotation Xrotation Yrotation
                JOINT lThumb2
                {
                  OFFSET 3.37035 -0.52449 3.41376
                  CHANNELS 3 Zrotation Xrotation Yrotation
                  End Site
                  {
                    OFFSET 1.78271 -1.18214 1.43049
                  }
                }
              }
              JOINT lIndex1
              {
                OFFSET 7.75947 0.938293 5.60832
                CHANNELS 3 Zrotation Xrotation Yrotation
                JOINT lIndex2
                {
                  OFFSET 2.54057 -0.884171 1.56538
                  CHANNELS 3 Zrotation Xrotation Yrotation
                  End Site
                  {
                    OFFSET 1.62519 -0.234802 1.16502
                  }
                }
              }
              JOINT lMid1
              {
                OFFSET 8.24714 1.18213 3.41376
                CHANNELS 3 Zrotation Xrotation Yrotation
                JOINT lMid2
                {
                  OFFSET 3.10165 -0.590103 1.0647
                  CHANNELS 3 Zrotation Xrotation Yrotation
                  End Site
                  {
                    OFFSET 2.48547 -0.328903 0.83742
                  }
                }
              }
              JOINT lRing1
              {
                OFFSET 8.82822 0.546677 1.51678
                CHANNELS 3 Zrotation Xrotation Yrotation
                JOINT lRing2
                {
                  OFFSET 2.60934 -0.819778 -0.0198488
                  CHANNELS 3 Zrotation Xrotation Yrotation
                  End Site
                  {
                    OFFSET 2.33842 -0.294052 0.168128
                  }
                }
              }
              JOINT lPinky1
              {
                OFFSET 8.27202 -0.0477905 -0.4584
                CHANNELS 3 Zrotation Xrotation Yrotation
                JOINT lPinky2
                {
                  OFFSET 1.82734 -0.647385 -0.700984
                  CHANNELS 3 Zrotation Xrotation Yrotation
                  End Site
                  {
                    OFFSET 1.69225 -0.51767 -0.607171
                  }
                }
              }
            }
          }
        }
      }
    }
  }
  JOINT rButtock
  {
    OFFSET -8.77824 4.35084 1.2192
    CHANNELS 3 Zrotation Xrotation Yrotation
    JOINT rThigh
    {
      OFFSET 0 -1.70687 -2.19456
      CHANNELS 3 Zrotation Xrotation Yrotation
      JOINT rShin
      {
        OFFSET 0 -36.8199 0.73152
        CHANNELS 3 Zrotation Xrotation Yrotation
        JOINT rFoot
        {
          OFFSET 0.73152 -45.1104 -5.12064
          CHANNELS 3 Zrotation Xrotation Yrotation
          End Site
          {
            OFFSET -1.1221 -3.69964 12.103
          }
        }
      }
    }
  }
  JOINT lButtock
  {
    OFFSET 8.77824 4.35084 1.2192
    CHANNELS 3 Zrotation Xrotation Yrotation
    JOINT lThigh
    {
      OFFSET 0 -1.70687 -2.19456
      CHANNELS 3 Zrotation Xrotation Yrotation
      JOINT lShin
      {
        OFFSET 0 -36.8199 0.73152
        CHANNELS 3 Zrotation Xrotation Yrotation
        JOINT lFoot
        {
          OFFSET -0.73152 -45.1104 -5.12064
          CHANNELS 3 Zrotation Xrotation Yrotation
          End Site
          {
            OFFSET 1.1221 -3.69964 12.103
          }
        }
      }
    }
  }
}
MOTION
Frames:	5
Frame Time:	0.03333
0.1331 5.8352 1.9671999999999998 178.998228 1.134889 -176.657304 -128.826935 38.676441 -35.999831 165.796758 19.204069 -2.227901 -54.161812 57.187145 -12.145281 -15.09499 56.592503 -5.924906 -24.837425 8.414547 -36.945202 -24.234338 5.189394 -23.837652 -164.084847 -59.58915 -170.272977 -14.04251 3.431355 -23.373811 -163.54589 66.500639 -110.393751 -7.624825 35.755708 1.591628 -21.071361 43.528782 19.150733 59.747571 -44.17579 95.017885 -105.891715 -70.583357 -122.564416 12.081696 17.353071 -169.228919 137.946082 -2.160494 -15.579709 175.248942 -59.223283 -43.126919 49.228352 67.151711 84.237252 174.551562 0.561364 -69.753052 -132.769173 -7.372377 -170.444724 105.365886 45.03238 174.258983 46.462562 77.700849 -90.720093 99.156462 2.079317 -129.1735 177.513228 -16.500184 64.65404 28.659473 -33.479584 45.180699 13.374799 23.090084 -12.930757 135.092228 -0.935561 -75.98445 -173.711762 -8.270695 -164.915624 -58.320704 60.43625 133.114909 27.062919 -31.823588 66.64223 47.339772 -9.929505 -5.253796 6.82697 43.95555 -9.496168 62.08287 -19.524183 89.167354 55.005835 -1.1748 52.109274 -84.431044 46.059877 -29.474077 38.06099 55.988841 52.912277 -108.280933 -29.050706 -30.749239 74.302457 37.985795 -153.211915 50.409301 -48.337642 56.555626 -105.910748 71.241448 -31.885337 101.175752 4.388797 -90.866162 -42.86296 -61.239486 51.861029 -109.621781 78.351476 -81.513051
0.11789999999999999 5.3488 1.8693000000000002 179.498656 1.973811 -176.114132 -121.206293 36.044248 59.505928 169.90976 -22.468098 122.801934 48.613238 81.544731 -179.219689 -68.325171 23.981745 86.911765 -13.717223 8.931126 -65.99059 -19.793417 8.723402 -47.227529 178.014235 47.026695 -135.733972 -90.961639 78.273286 88.455055 -100.879492 15.471765 -149.764948 -12.392135 -19.522861 -5.674908 -63.168994 65.461473 37.898804 96.91614 -34.394406 -172.809285 -44.848376 -35.418874 -58.150452 178.004497 -7.795318 -79.787866 139.622833 60.780146 -3.025245 -22.633247 71.24292 -150.920347 66.325879 -73.802736 -84.048354 80.080623 22.66601 116.422991 105.708145 -57.136018 17.580017 -168.100896 12.643473 -112.28767 -41.516689 1.908964 -0.299686 68.414606 -36.117421 110.102739 -0.993975 4.67171 148.402639 141.275355 15.580589 -105.74528 174.959978 -36.750741 -94.958216 95.080268 -65.841272 155.049431 139.271855 64.424558 -45.011558 179.635903 19.237024 -20.106501 166.348836 18.686963 162.123945 -139.005873 -66.910612 -53.605494 141.898421 0.835621 173.985864 -61.331496 22.770979 -62.280554 124.087875 3.193822 63.658872 152.635339 48.749634 33.337707 -19.156346 7.115989 28.745974 13.194372 -69.402339 12.469453 71.772614 36.044706 32.68547 -93.057785 -2.871445 -107.678262 -67.599417 54.388045 -47.245413 78.424391 -14.053568 -65.993401 -61.112929 -34.496412 93.196861 88.197211 25.589633 75.111356
0.12689999999999999 6.5334 1.8107000000000002 179.051522 -1.108376 -175.9888 -55.735496 43.680088 -67.972248 168.117759 13.892028 18.753741 -145.44976 50.476172 32.669096 -46.072809 45.834152 26.727308 -22.141049 6.233179 -31.102049 -19.128955 3.705454 -21.734115 -162.481737 51.762432 113.681126 64.577135 -17.966122 46.605968 19.662041 -39.378128 98.75551 -11.040337 54.823471 7.120908 -174.993764 6.203149 118.557229 -178.080755 6.403668 165.440857 179.701109 6.21476 131.991324 -95.514334 55.13747 -98.201515 -9.188131 24.251182 155.681766 -7.578061 30.077716 -165.216984 -15.626061 1.009143 -172.467591 106.018111 -51.479632 -38.035206 61.58811 -53.095809 -73.675392 -81.01491 -88.437951 -62.855509 54.62479 -9.47876 126.513141 -132.668849 -21.303549 -157.955625 170.78742 -4.839857 -15.027723 143.492729 0.371451 -93.103652 171.216667 -38.901311 -107.513493 -168.045299 -47.69359 -171.634989 154.332011 -26.449496 177.264659 174.612807 4.405567 175.693185 -39.675568 55.687679 57.634845 167.202419 -2.152198 -162.986115 -19.405548 24.355909 0.265387 179.518819 3.717277 96.213921 -54.785644 46.31661 69.147019 23.288416 33.334852 -56.004657 48.164502 56.028154 52.85415 -106.105343 -26.87768 -30.082758 66.862742 40.851522 -63.596796 -60.273512 2.063787 -46.675865 -33.238251 20.492653 -40.405984 23.353669 -32.485203 -141.202975 16.435871 -67.017877 150.738348 -127.977538 16.367859 -97.142661
0.2056 9.087399999999999 1.779 179.332254 -2.585495 -176.405866 -19.408152 28.41481 -91.559826 133.697932 36.00084 21.500589 -124.174404 39.89649 40.594734 -18.264747 81.668793 -2.443313 -5.944358 2.219653 -40.922762 -4.566334 1.321237 -32.260018 -54.236026 33.365646 20.783492 -126.45364 -18.714726 176.501343 36.601292 -40.389477 -103.074023 161.456561 -12.295735 150.635275 6.961834 -56.02458 -19.984768 62.795756 -22.726993 -17.066678 -82.187521 55.718701 29.028016 -57.584686 77.973795 -131.101579 94.164784 -80.624486 -88.390297 2.737228 54.342435 167.921371 13.207447 -49.728772 -116.361152 -128.472497 -40.79415 92.834687 64.133244 -51.497849 -64.377761 -14.122771 -49.245071 -22.537578 44.361369 -2.193447 132.353515 -151.752473 -3.944567 -166.799754 -174.445762 5.759638 -16.476371 133.466978 22.663071 -76.00112 9.798794 -43.847596 46.75693 142.13568 39.604152 -133.509766 161.271606 55.732424 -171.541739 -135.345485 1.314281 -146.525571 -48.810987 49.823342 70.318905 -121.990428 -66.877663 -110.031959 121.781892 15.852685 162.001031 108.223221 -4.240244 -132.977859 -56.707614 48.545947 78.25402 -97.987246 -75.672404 -100.335142 -2.975929 7.252398 22.382129 3.499156 -67.327811 -157.870787 -87.335102 -51.665697 0.655075 105.17526 31.059421 18.118664 0.509895 3.211266 -9.027164 -34.746643 -24.992205 -17.020458 -67.457579 67.050422 -135.876753 -78.052231 12.5357 -75.409835
0.3861 11.0665 1.6886 179.950524 -3.325728 -175.933083 -10.465273 16.099747 -100.145053 69.491178 45.287061 94.892705 68.68478 81.781076 15.112459 38.302072 -63.895864 -123.637734 1.074433 -0.821299 -74.788115 -10.624819 6.490294 -62.746525 62.752684 55.163564 -66.854553 63.575256 -60.833999 49.313276 -178.94944 -2.090091 52.469911 147.176259 -31.616315 138.46983 -178.276948 36.647776 103.389985 136.646672 -16.101742 136.224636 -74.504523 50.033807 12.897311 30.19778 5.584649 161.002219 14.940317 -79.034211 -158.073297 6.927273 26.153948 170.1657 106.224609 -3.063925 -13.923411 26.490394 6.366584 -7.383881 -21.513454 4.988971 -108.198292 118.167851 31.16782 -58.184271 87.161057 -25.163868 160.231294 -148.865211 -10.526943 -147.712633 -157.449158 0.244514 -17.665701 119.848767 35.984515 -67.484947 -51.247067 75.277314 129.292143 117.079123 -55.578313 -77.019565 83.073145 -64.481501 145.419365 -55.083439 85.514093 18.994801 52.868485 -11.617186 79.000072 14.995923 69.593959 -62.481733 -101.543183 49.753163 61.326029 32.634319 -32.593188 67.169989 159.389036 -10.361606 75.446287 -0.5589 42.963497 72.374277 26.279689 22.388254 37.209282 -63.244377 -55.926087 -154.453241 -92.572948 -7.229589 -23.38491 -149.22862 -50.787688 -63.858405 -86.683166 60.388049 -46.786087 88.617366 3.042167 -45.649727 -77.539788 -17.507431 -155.79142 -42.815991 -50.843066 -54.826525
